<?xml version="1.0" encoding="UTF-8" standalone="no"?>
<svg
   xmlns:dc="http://purl.org/dc/elements/1.1/"
   xmlns:cc="http://creativecommons.org/ns#"
   xmlns:rdf="http://www.w3.org/1999/02/22-rdf-syntax-ns#"
   xmlns:svg="http://www.w3.org/2000/svg"
   xmlns="http://www.w3.org/2000/svg"
   xmlns:sodipodi="http://sodipodi.sourceforge.net/DTD/sodipodi-0.dtd"
   xmlns:inkscape="http://www.inkscape.org/namespaces/inkscape"
   inkscape:version="1.0 (4035a4fb49, 2020-05-01)"
   sodipodi:docname="helicoptero.svg"
   id="svg7430"
   version="1.1"
   viewBox="0 0 210 297"
   height="297mm"
   width="210mm">
  <defs
     id="defs7424" />
  <sodipodi:namedview
     inkscape:window-maximized="1"
     inkscape:window-y="-9"
     inkscape:window-x="-9"
     inkscape:window-height="1051"
     inkscape:window-width="1920"
     inkscape:snap-bbox="true"
     inkscape:snap-page="true"
     inkscape:snap-grids="true"
     inkscape:snap-to-guides="true"
     showgrid="false"
     inkscape:document-rotation="0"
     inkscape:current-layer="layer1"
     inkscape:document-units="mm"
     inkscape:cy="-64.606323"
     inkscape:cx="328.5546"
     inkscape:zoom="0.37905794"
     inkscape:pageshadow="2"
     inkscape:pageopacity="0.0"
     borderopacity="1.0"
     bordercolor="#666666"
     pagecolor="#ffffff"
     id="base" />
  <metadata
     id="metadata7427">
    <rdf:RDF>
      <cc:Work
         rdf:about="">
        <dc:format>image/svg+xml</dc:format>
        <dc:type
           rdf:resource="http://purl.org/dc/dcmitype/StillImage" />
      </cc:Work>
    </rdf:RDF>
  </metadata>
  <g
     id="layer1"
     inkscape:groupmode="layer"
     inkscape:label="Capa 1">
    <g
       style="stroke-width:1.63316"
       transform="matrix(0.63592041,0,0,0.58957307,2.1408455,75.176693)"
       id="g9562">
      <ellipse
         style="opacity:0.996;fill:#008000;stroke-width:0.432108"
         id="path7432"
         cx="125.3494"
         cy="128.28937"
         rx="82.051743"
         ry="31.003265" />
    </g>
    <rect
       y="138.20665"
       x="120.09457"
       height="8.5090446"
       width="72.743797"
       id="rect7434"
       style="fill:#008000;stroke-width:0.264583" />
    <path
       transform="matrix(0.63592041,0,0,0.58957307,2.1408455,75.176693)"
       inkscape:transform-center-y="0.84233704"
       inkscape:transform-center-x="1.3655539"
       d="m 292.9274,143.25646 -3.87184,-34.91289 -25.89614,3.18769 32.00767,-14.471009 -11.03403,-23.64365 23.65367,25.969322 19.07674,-17.800273 -17.38891,30.52093 22.82411,12.64248 -34.4006,-7.10635 z"
       inkscape:randomized="0"
       inkscape:rounded="0"
       inkscape:flatsided="false"
       sodipodi:arg2="3.0096785"
       sodipodi:arg1="1.7596935"
       sodipodi:r2="10.915675"
       sodipodi:r1="37.006939"
       sodipodi:cy="106.90781"
       sodipodi:cx="299.8764"
       sodipodi:sides="5"
       id="path7440"
       style="fill:#cccccc;stroke-width:0.432108"
       sodipodi:type="star" />
    <rect
       ry="4.8848224"
       y="124.65521"
       x="64.007065"
       height="9.7696457"
       width="42.490536"
       id="rect7442"
       style="fill:#6c5d53;stroke-width:0.264583" />
    <path
       id="path8724"
       d="m 33.950801,142.60796 v -7.91499 h 14.503436 c 7.97689,0 14.439701,0.0498 14.361801,0.11083 -0.0779,0.061 -6.260273,3.41461 -13.738607,7.45256 -7.478334,4.03796 -13.941145,7.54983 -14.361802,7.80416 l -0.764828,0.46244 z"
       style="fill:none;stroke-width:0.534541" />
    <path
       id="path8732"
       d="m 34.117164,142.41349 c -0.137775,-4.08783 -0.193328,-7.46833 -0.12345,-7.51222 0.249812,-0.15692 26.440296,0.28832 26.617376,0.45249 0.09941,0.0922 -5.437826,3.20185 -12.304977,6.91039 -6.867152,3.70856 -12.812592,6.93159 -13.212091,7.1623 l -0.726359,0.41947 z"
       style="fill:none;stroke-width:0.534541" />
    <path
       id="path8734"
       d="m 34.117164,142.41349 c -0.137775,-4.08783 -0.193328,-7.46833 -0.12345,-7.51222 0.249812,-0.15692 26.440296,0.28832 26.617376,0.45249 0.09941,0.0922 -5.437826,3.20185 -12.304977,6.91039 -6.867152,3.70856 -12.812592,6.93159 -13.212091,7.1623 l -0.726359,0.41947 z"
       style="fill:none;stroke-width:0.534541" />
    <path
       id="path8736"
       d="m 34.117164,142.41349 c -0.137775,-4.08783 -0.193328,-7.46833 -0.12345,-7.51222 0.249812,-0.15692 26.440296,0.28832 26.617376,0.45249 0.09941,0.0922 -5.437826,3.20185 -12.304977,6.91039 -6.867152,3.70856 -12.812592,6.93159 -13.212091,7.1623 l -0.726359,0.41947 z"
       style="fill:none;stroke-width:0.534541" />
    <ellipse
       ry="2.674902"
       rx="3.9948654"
       cy="125.99983"
       cx="86.03302"
       id="path11703"
       style="opacity:1;fill:#000000;fill-opacity:1;stroke-width:0.316;stroke-miterlimit:4;stroke-dasharray:none" />
    <rect
       transform="matrix(-0.16617083,-0.98609698,0.9231816,0.38436406,0,0)"
       style="fill:#808080;stroke-width:0.343822"
       id="rect7444-6"
       width="3.5845349"
       height="86.245201"
       x="-100.75407"
       y="75.769547" />
    <rect
       y="-10.475664"
       x="-97.16954"
       height="86.245201"
       width="3.5845349"
       id="rect7444-6-9"
       style="fill:#808080;stroke-width:0.343822"
       transform="matrix(-0.16617083,-0.98609698,0.92318161,0.38436405,0,0)" />
    <rect
       transform="matrix(0.98437942,0.17606009,-0.72115374,0.69277506,0,0)"
       style="fill:#808080;stroke-width:0.351714"
       id="rect7444-6-9-3"
       width="3.849081"
       height="84.046593"
       x="181.27083"
       y="133.30367" />
    <rect
       y="49.257065"
       x="185.11992"
       height="84.046593"
       width="3.849081"
       id="rect7444-6-9-3-4"
       style="fill:#808080;stroke-width:0.351714"
       transform="matrix(0.98437942,0.17606009,-0.72115374,0.69277506,0,0)" />
  </g>
  <g
     inkscape:label="Capa 2"
     id="layer2"
     inkscape:groupmode="layer">
    <path
       transform="matrix(-0.99969963,0.02450832,-0.06327519,-0.99799612,0,0)"
       d="m -25.893015,-150.54753 a 19.348204,11.582226 0 0 1 -5.732854,8.22913 19.348204,11.582226 0 0 1 -13.801284,3.35256 l 0.185934,-11.58169 z"
       sodipodi:arc-type="slice"
       sodipodi:end="1.5804064"
       sodipodi:start="0"
       sodipodi:ry="11.582226"
       sodipodi:rx="19.348204"
       sodipodi:cy="-150.54753"
       sodipodi:cx="-45.241219"
       sodipodi:type="arc"
       id="path11908"
       style="opacity:1;fill:#00ffff;fill-opacity:1;stroke-width:0.500185;stroke-miterlimit:4;stroke-dasharray:none;paint-order:stroke markers fill" />
  </g>
</svg>
